<?xml version="1.0" standalone="no"?>
<!DOCTYPE svg PUBLIC "-//W3C//DTD SVG 20010904//EN"
 "http://www.w3.org/TR/2001/REC-SVG-20010904/DTD/svg10.dtd">
<svg version="1.0" xmlns="http://www.w3.org/2000/svg"
 width="290.000000pt" height="290.000000pt" viewBox="0 0 290.000000 290.000000"
 preserveAspectRatio="xMidYMid meet">
<metadata>
Created by potrace 1.11, written by Peter Selinger 2001-2013
</metadata>
<g transform="translate(0.000000,290.000000) scale(0.100000,-0.100000)"
fill="#000000" stroke="none">
<path d="M1035 2684 c-3 -25 -8 -56 -11 -67 -2 -12 -13 -71 -24 -132 -11 -60
-22 -120 -24 -133 -3 -13 -15 -81 -27 -150 -11 -70 -22 -129 -24 -132 -2 -3
-6 -27 -9 -54 -4 -28 -14 -81 -22 -119 -7 -37 -14 -70 -14 -72 0 -2 -82 -45
-182 -96 -183 -92 -558 -284 -611 -312 -16 -8 -25 -17 -20 -20 26 -16 93 -52
208 -112 72 -37 135 -71 140 -75 6 -4 64 -36 130 -70 66 -35 149 -79 185 -99
36 -20 82 -45 103 -56 21 -11 40 -29 42 -40 3 -11 18 -103 35 -205 17 -102 32
-196 34 -210 3 -14 7 -43 11 -65 6 -44 12 -85 20 -130 3 -16 8 -46 11 -65 8
-55 13 -83 18 -110 3 -14 8 -43 11 -64 3 -22 7 -41 8 -42 1 -1 72 66 158 149
207 201 451 436 481 465 22 20 29 21 79 12 30 -5 70 -11 89 -14 41 -6 293 -45
330 -51 44 -7 164 -27 185 -30 11 -1 43 -6 70 -10 28 -4 59 -9 70 -11 52 -10
115 -16 115 -11 0 3 -48 104 -106 224 -58 120 -123 254 -144 298 -21 44 -63
131 -93 193 l-55 113 63 122 c34 67 128 252 209 411 l147 289 -63 -8 c-35 -4
-72 -9 -83 -10 -38 -5 -105 -15 -147 -21 -24 -4 -54 -8 -68 -9 -14 -2 -63 -8
-110 -15 -47 -7 -96 -13 -110 -15 -14 -2 -63 -8 -110 -15 -47 -6 -98 -13 -115
-15 -16 -2 -48 -7 -70 -10 l-40 -5 -315 312 c-174 172 -323 319 -332 326 -14
11 -16 7 -23 -34z"/>
</g>
</svg>
